<svg xmlns="http://www.w3.org/2000/svg" viewBox="0 0 24 24"><path fill="#5059C9" d="M20.496 7.5h-4.125a.375.375 0 0 0-.371.379v5.746c0 1.864 1.509 3.375 3.375 3.375A3.376 3.376 0 0 0 22.75 13.625V10.875A3.375 3.375 0 0 0 20.496 7.5z"/><circle fill="#5059C9" cx="19.5" cy="4.5" r="2.25"/><path fill="#7B83EB" d="M14.625 7.5H6.375A.375.375 0 0 0 6 7.875v8.25C6 18.816 8.184 21 10.875 21A4.875 4.875 0 0 0 15.75 16.125V8.625a1.125 1.125 0 0 0-1.125-1.125z"/><circle fill="#7B83EB" cx="10.5" cy="4.125" r="3"/></svg>