<svg xmlns="http://www.w3.org/2000/svg" viewBox="0 0 24 24"><path fill="#0078D4" d="M12 2C6.478 2 2 6.478 2 12s4.478 10 10 10h.5c.276 0 .5-.224.5-.5V14h5.5c.276 0 .5-.224.5-.5v-1c0-.276-.224-.5-.5-.5H13V7.5c0-.276.224-.5.5-.5h2c.276 0 .5-.224.5-.5V5.25A3.25 3.25 0 0 0 12.75 2H12z"/><path fill="#28A8EA" d="M18.5 5H13v7h9v-3.5A3.5 3.5 0 0 0 18.5 5z"/><path fill="#0078D4" d="M13 12H2.05c.252 4.457 3.542 8.108 7.95 9.447V12z"/><path fill="#50D9FF" d="M13 12h9v3.5a3.5 3.5 0 0 1-3.5 3.5H13V12z"/><path fill="#0364B8" d="M2 12c0 4.072 2.434 7.575 5.926 9.144A9.955 9.955 0 0 0 12 22c.168 0 .335-.004.5-.012V12H2z"/><rect fill="#0078D4" x="3" y="5" width="10" height="14" rx="1.5" ry="1.5"/><path fill="#fff" d="M7.99 9.57c-1.81 0-2.89 1.31-2.89 3s1.07 3 2.87 3c1.82 0 2.91-1.31 2.91-3.02 0-1.7-1.07-2.98-2.89-2.98zm-.02 5c-.96 0-1.55-.85-1.55-2s.59-2 1.57-2c.98 0 1.55.84 1.55 1.98 0 1.16-.58 2.02-1.57 2.02z"/></svg>